<mxfile host="app.diagrams.net" modified="2021-01-13T06:30:33.918Z" agent="5.0 (Windows NT 10.0; Win64; x64) AppleWebKit/537.36 (KHTML, like Gecko) Chrome/87.0.4280.88 Safari/537.36" etag="1sDsF7bV0aQFru3UfJy3" version="14.1.9" type="github">
  <diagram id="kgpKYQtTHZ0yAKxKKP6v" name="Page-1">
    <mxGraphModel dx="1360" dy="802" grid="1" gridSize="10" guides="1" tooltips="1" connect="1" arrows="1" fold="1" page="1" pageScale="1" pageWidth="850" pageHeight="1100" math="0" shadow="0">
      <root>
        <mxCell id="0" />
        <mxCell id="1" parent="0" />
        <mxCell id="3nuBFxr9cyL0pnOWT2aG-1" value="初始帧" style="shape=umlLifeline;perimeter=lifelinePerimeter;container=1;collapsible=0;recursiveResize=0;rounded=0;shadow=0;strokeWidth=1;" parent="1" vertex="1">
          <mxGeometry x="70" y="360" width="100" height="320" as="geometry" />
        </mxCell>
        <mxCell id="3nuBFxr9cyL0pnOWT2aG-6" value="" style="points=[];perimeter=orthogonalPerimeter;rounded=0;shadow=0;strokeWidth=1;direction=south;" parent="1" vertex="1">
          <mxGeometry x="120" y="470" width="640" height="10" as="geometry" />
        </mxCell>
        <mxCell id="rMTZ-_RebsnYCb17mS3k-1" value="" style="points=[];perimeter=orthogonalPerimeter;rounded=0;shadow=0;strokeWidth=1;direction=south;" parent="1" vertex="1">
          <mxGeometry x="120" y="630" width="640" height="10" as="geometry" />
        </mxCell>
        <mxCell id="rMTZ-_RebsnYCb17mS3k-2" value="" style="points=[];perimeter=orthogonalPerimeter;rounded=0;shadow=0;strokeWidth=1;direction=south;" parent="1" vertex="1">
          <mxGeometry x="120" y="550" width="640" height="10" as="geometry" />
        </mxCell>
        <mxCell id="rMTZ-_RebsnYCb17mS3k-3" value="PlayerA" style="text;html=1;strokeColor=none;fillColor=none;align=center;verticalAlign=middle;whiteSpace=wrap;rounded=0;fontStyle=1" parent="1" vertex="1">
          <mxGeometry x="40" y="460" width="60" height="20" as="geometry" />
        </mxCell>
        <mxCell id="rMTZ-_RebsnYCb17mS3k-4" value="PlayerB" style="text;html=1;strokeColor=none;fillColor=none;align=center;verticalAlign=middle;whiteSpace=wrap;rounded=0;fontStyle=1" parent="1" vertex="1">
          <mxGeometry x="40" y="620" width="60" height="20" as="geometry" />
        </mxCell>
        <mxCell id="rMTZ-_RebsnYCb17mS3k-5" value="Server" style="text;html=1;strokeColor=none;fillColor=none;align=center;verticalAlign=middle;whiteSpace=wrap;rounded=0;fontStyle=1" parent="1" vertex="1">
          <mxGeometry x="40" y="540" width="60" height="20" as="geometry" />
        </mxCell>
        <mxCell id="rMTZ-_RebsnYCb17mS3k-10" value="Turn1" style="shape=umlLifeline;perimeter=lifelinePerimeter;container=1;collapsible=0;recursiveResize=0;rounded=0;shadow=0;strokeWidth=1;" parent="1" vertex="1">
          <mxGeometry x="270" y="360" width="100" height="320" as="geometry" />
        </mxCell>
        <mxCell id="rMTZ-_RebsnYCb17mS3k-11" value="Turn2" style="shape=umlLifeline;perimeter=lifelinePerimeter;container=1;collapsible=0;recursiveResize=0;rounded=0;shadow=0;strokeWidth=1;" parent="1" vertex="1">
          <mxGeometry x="470" y="360" width="100" height="320" as="geometry" />
        </mxCell>
        <mxCell id="rMTZ-_RebsnYCb17mS3k-12" value="Turn3" style="shape=umlLifeline;perimeter=lifelinePerimeter;container=1;collapsible=0;recursiveResize=0;rounded=0;shadow=0;strokeWidth=1;" parent="1" vertex="1">
          <mxGeometry x="670" y="360" width="100" height="320" as="geometry" />
        </mxCell>
        <mxCell id="rMTZ-_RebsnYCb17mS3k-13" value="Init" style="endArrow=classic;html=1;dashed=1;fontFamily=Helvetica;fontStyle=1;fillColor=#1ba1e2;strokeColor=#006EAF;" parent="1" edge="1">
          <mxGeometry width="50" height="50" relative="1" as="geometry">
            <mxPoint x="120" y="550" as="sourcePoint" />
            <mxPoint x="200" y="481" as="targetPoint" />
          </mxGeometry>
        </mxCell>
        <mxCell id="rMTZ-_RebsnYCb17mS3k-14" value="Init" style="endArrow=classic;html=1;dashed=1;fontFamily=Helvetica;fontStyle=1;entryX=0.1;entryY=0.873;entryDx=0;entryDy=0;entryPerimeter=0;fillColor=#1ba1e2;strokeColor=#006EAF;" parent="1" target="rMTZ-_RebsnYCb17mS3k-1" edge="1">
          <mxGeometry width="50" height="50" relative="1" as="geometry">
            <mxPoint x="120" y="560" as="sourcePoint" />
            <mxPoint x="202.79999999999995" y="491" as="targetPoint" />
          </mxGeometry>
        </mxCell>
        <mxCell id="rMTZ-_RebsnYCb17mS3k-15" value="ctrl" style="endArrow=classic;html=1;fontFamily=Helvetica;entryX=0.2;entryY=0.785;entryDx=0;entryDy=0;entryPerimeter=0;fontStyle=1;fillColor=#60a917;strokeColor=#2D7600;" parent="1" target="rMTZ-_RebsnYCb17mS3k-2" edge="1">
          <mxGeometry width="50" height="50" relative="1" as="geometry">
            <mxPoint x="200" y="480" as="sourcePoint" />
            <mxPoint x="250" y="490" as="targetPoint" />
          </mxGeometry>
        </mxCell>
        <mxCell id="rMTZ-_RebsnYCb17mS3k-16" value="ctrl" style="endArrow=classic;html=1;fontFamily=Helvetica;entryX=0.2;entryY=0.785;entryDx=0;entryDy=0;entryPerimeter=0;fontStyle=1;fillColor=#60a917;strokeColor=#2D7600;" parent="1" edge="1">
          <mxGeometry width="50" height="50" relative="1" as="geometry">
            <mxPoint x="240" y="480" as="sourcePoint" />
            <mxPoint x="289" y="552" as="targetPoint" />
          </mxGeometry>
        </mxCell>
        <mxCell id="rMTZ-_RebsnYCb17mS3k-17" value="ctrl" style="endArrow=classic;html=1;fontFamily=Helvetica;entryX=0.9;entryY=0.782;entryDx=0;entryDy=0;entryPerimeter=0;fontStyle=1;fillColor=#008a00;strokeColor=#005700;" parent="1" target="rMTZ-_RebsnYCb17mS3k-2" edge="1">
          <mxGeometry width="50" height="50" relative="1" as="geometry">
            <mxPoint x="200" y="630" as="sourcePoint" />
            <mxPoint x="259" y="702" as="targetPoint" />
          </mxGeometry>
        </mxCell>
        <mxCell id="rMTZ-_RebsnYCb17mS3k-18" value="ctrl" style="endArrow=classic;html=1;fontFamily=Helvetica;entryX=0.9;entryY=0.782;entryDx=0;entryDy=0;entryPerimeter=0;fontStyle=1;fillColor=#008a00;strokeColor=#005700;" parent="1" edge="1">
          <mxGeometry width="50" height="50" relative="1" as="geometry">
            <mxPoint x="240" y="630" as="sourcePoint" />
            <mxPoint x="290.79999999999995" y="559" as="targetPoint" />
          </mxGeometry>
        </mxCell>
        <mxCell id="rMTZ-_RebsnYCb17mS3k-19" value="update1" style="endArrow=classic;html=1;dashed=1;fontFamily=Helvetica;fontStyle=1;entryX=1.2;entryY=0.564;entryDx=0;entryDy=0;entryPerimeter=0;fillColor=#1ba1e2;strokeColor=#006EAF;exitX=0.52;exitY=0.591;exitDx=0;exitDy=0;exitPerimeter=0;" parent="1" source="rMTZ-_RebsnYCb17mS3k-10" target="3nuBFxr9cyL0pnOWT2aG-6" edge="1">
          <mxGeometry width="50" height="50" relative="1" as="geometry">
            <mxPoint x="327" y="547" as="sourcePoint" />
            <mxPoint x="408" y="480" as="targetPoint" />
          </mxGeometry>
        </mxCell>
        <mxCell id="rMTZ-_RebsnYCb17mS3k-20" value="update1&lt;br&gt;" style="endArrow=classic;html=1;dashed=1;fontFamily=Helvetica;fontStyle=1;exitX=0.51;exitY=0.634;exitDx=0;exitDy=0;exitPerimeter=0;fillColor=#1ba1e2;strokeColor=#006EAF;" parent="1" source="rMTZ-_RebsnYCb17mS3k-10" edge="1">
          <mxGeometry width="50" height="50" relative="1" as="geometry">
            <mxPoint x="330" y="570" as="sourcePoint" />
            <mxPoint x="400" y="630" as="targetPoint" />
          </mxGeometry>
        </mxCell>
        <mxCell id="rMTZ-_RebsnYCb17mS3k-21" value="ctrl" style="endArrow=classic;html=1;fontFamily=Helvetica;entryX=0.9;entryY=0.782;entryDx=0;entryDy=0;entryPerimeter=0;fontStyle=1;fillColor=#008a00;strokeColor=#005700;" parent="1" edge="1">
          <mxGeometry width="50" height="50" relative="1" as="geometry">
            <mxPoint x="410" y="630" as="sourcePoint" />
            <mxPoint x="460.79999999999995" y="559" as="targetPoint" />
          </mxGeometry>
        </mxCell>
        <mxCell id="rMTZ-_RebsnYCb17mS3k-22" value="ctrl" style="endArrow=classic;html=1;fontFamily=Helvetica;entryX=0.9;entryY=0.782;entryDx=0;entryDy=0;entryPerimeter=0;fontStyle=1;fillColor=#008a00;strokeColor=#005700;" parent="1" edge="1">
          <mxGeometry width="50" height="50" relative="1" as="geometry">
            <mxPoint x="450" y="630" as="sourcePoint" />
            <mxPoint x="500.79999999999995" y="559" as="targetPoint" />
          </mxGeometry>
        </mxCell>
        <mxCell id="rMTZ-_RebsnYCb17mS3k-23" value="ctrl" style="endArrow=classic;html=1;fontFamily=Helvetica;entryX=0.2;entryY=0.785;entryDx=0;entryDy=0;entryPerimeter=0;fontStyle=1;exitX=1.1;exitY=0.609;exitDx=0;exitDy=0;exitPerimeter=0;fillColor=#60a917;strokeColor=#2D7600;" parent="1" source="3nuBFxr9cyL0pnOWT2aG-6" edge="1">
          <mxGeometry width="50" height="50" relative="1" as="geometry">
            <mxPoint x="401" y="480" as="sourcePoint" />
            <mxPoint x="450" y="552" as="targetPoint" />
          </mxGeometry>
        </mxCell>
        <mxCell id="rMTZ-_RebsnYCb17mS3k-24" value="ctrl" style="endArrow=classic;html=1;fontFamily=Helvetica;fontStyle=1;fillColor=#60a917;strokeColor=#2D7600;" parent="1" edge="1">
          <mxGeometry width="50" height="50" relative="1" as="geometry">
            <mxPoint x="460" y="480" as="sourcePoint" />
            <mxPoint x="580" y="548" as="targetPoint" />
          </mxGeometry>
        </mxCell>
        <mxCell id="rMTZ-_RebsnYCb17mS3k-25" value="update2" style="endArrow=classic;html=1;dashed=1;fontFamily=Helvetica;fontStyle=1;entryX=1.3;entryY=0.25;entryDx=0;entryDy=0;entryPerimeter=0;fillColor=#1ba1e2;strokeColor=#006EAF;" parent="1" target="3nuBFxr9cyL0pnOWT2aG-6" edge="1">
          <mxGeometry width="50" height="50" relative="1" as="geometry">
            <mxPoint x="520" y="550" as="sourcePoint" />
            <mxPoint x="595" y="484" as="targetPoint" />
          </mxGeometry>
        </mxCell>
        <mxCell id="rMTZ-_RebsnYCb17mS3k-27" value="update2" style="endArrow=classic;html=1;dashed=1;fontFamily=Helvetica;fontStyle=1;entryX=-0.3;entryY=0.248;entryDx=0;entryDy=0;entryPerimeter=0;exitX=0.51;exitY=0.634;exitDx=0;exitDy=0;exitPerimeter=0;fillColor=#1ba1e2;strokeColor=#006EAF;" parent="1" target="rMTZ-_RebsnYCb17mS3k-1" edge="1">
          <mxGeometry width="50" height="50" relative="1" as="geometry">
            <mxPoint x="520" y="560.0000000000001" as="sourcePoint" />
            <mxPoint x="619.8" y="624.12" as="targetPoint" />
          </mxGeometry>
        </mxCell>
        <mxCell id="rMTZ-_RebsnYCb17mS3k-28" value="update3" style="endArrow=classic;html=1;dashed=1;fontFamily=Helvetica;fontStyle=1;entryX=1.3;entryY=0.25;entryDx=0;entryDy=0;entryPerimeter=0;fillColor=#1ba1e2;strokeColor=#006EAF;" parent="1" edge="1">
          <mxGeometry width="50" height="50" relative="1" as="geometry">
            <mxPoint x="720" y="550" as="sourcePoint" />
            <mxPoint x="800" y="483" as="targetPoint" />
          </mxGeometry>
        </mxCell>
        <mxCell id="rMTZ-_RebsnYCb17mS3k-29" value="update3" style="endArrow=classic;html=1;dashed=1;fontFamily=Helvetica;fontStyle=1;entryX=-0.3;entryY=0.248;entryDx=0;entryDy=0;entryPerimeter=0;exitX=0.51;exitY=0.634;exitDx=0;exitDy=0;exitPerimeter=0;fillColor=#1ba1e2;strokeColor=#006EAF;" parent="1" edge="1">
          <mxGeometry width="50" height="50" relative="1" as="geometry">
            <mxPoint x="720" y="563" as="sourcePoint" />
            <mxPoint x="801.28" y="630" as="targetPoint" />
          </mxGeometry>
        </mxCell>
        <mxCell id="rMTZ-_RebsnYCb17mS3k-30" value="ctrl" style="endArrow=classic;html=1;fontFamily=Helvetica;entryX=0.2;entryY=0.785;entryDx=0;entryDy=0;entryPerimeter=0;fontStyle=1;exitX=1.1;exitY=0.609;exitDx=0;exitDy=0;exitPerimeter=0;fillColor=#60a917;strokeColor=#2D7600;" parent="1" edge="1">
          <mxGeometry width="50" height="50" relative="1" as="geometry">
            <mxPoint x="570" y="479" as="sourcePoint" />
            <mxPoint x="649.76" y="550" as="targetPoint" />
          </mxGeometry>
        </mxCell>
        <mxCell id="rMTZ-_RebsnYCb17mS3k-31" value="ctrl" style="endArrow=classic;html=1;fontFamily=Helvetica;entryX=0.9;entryY=0.782;entryDx=0;entryDy=0;entryPerimeter=0;fontStyle=1;fillColor=#008a00;strokeColor=#005700;" parent="1" edge="1">
          <mxGeometry width="50" height="50" relative="1" as="geometry">
            <mxPoint x="630" y="630" as="sourcePoint" />
            <mxPoint x="680.8" y="559" as="targetPoint" />
          </mxGeometry>
        </mxCell>
        <mxCell id="rMTZ-_RebsnYCb17mS3k-33" value="" style="shape=curlyBracket;whiteSpace=wrap;html=1;rounded=1;fontFamily=Helvetica;direction=south;" parent="1" vertex="1">
          <mxGeometry x="120" y="340" width="200" height="20" as="geometry" />
        </mxCell>
        <mxCell id="rMTZ-_RebsnYCb17mS3k-34" value="" style="shape=curlyBracket;whiteSpace=wrap;html=1;rounded=1;fontFamily=Helvetica;direction=south;" parent="1" vertex="1">
          <mxGeometry x="320" y="340" width="200" height="20" as="geometry" />
        </mxCell>
        <mxCell id="rMTZ-_RebsnYCb17mS3k-35" value="" style="shape=curlyBracket;whiteSpace=wrap;html=1;rounded=1;fontFamily=Helvetica;direction=south;" parent="1" vertex="1">
          <mxGeometry x="520" y="340" width="200" height="20" as="geometry" />
        </mxCell>
        <mxCell id="rMTZ-_RebsnYCb17mS3k-37" value="固定间隔" style="text;html=1;strokeColor=none;fillColor=none;align=center;verticalAlign=middle;whiteSpace=wrap;rounded=0;fontFamily=Helvetica;fontStyle=1" parent="1" vertex="1">
          <mxGeometry x="190" y="320" width="60" height="20" as="geometry" />
        </mxCell>
        <mxCell id="rMTZ-_RebsnYCb17mS3k-39" value="固定间隔" style="text;html=1;strokeColor=none;fillColor=none;align=center;verticalAlign=middle;whiteSpace=wrap;rounded=0;fontFamily=Helvetica;fontStyle=1" parent="1" vertex="1">
          <mxGeometry x="390" y="320" width="60" height="20" as="geometry" />
        </mxCell>
        <mxCell id="rMTZ-_RebsnYCb17mS3k-40" value="固定间隔" style="text;html=1;strokeColor=none;fillColor=none;align=center;verticalAlign=middle;whiteSpace=wrap;rounded=0;fontFamily=Helvetica;fontStyle=1" parent="1" vertex="1">
          <mxGeometry x="590" y="320" width="60" height="20" as="geometry" />
        </mxCell>
        <mxCell id="C6hpeDeuOPBSaNuzEDgF-1" value="playerA 有延迟" style="text;html=1;strokeColor=none;fillColor=none;align=center;verticalAlign=middle;whiteSpace=wrap;rounded=0;fontFamily=Helvetica;" vertex="1" parent="1">
          <mxGeometry x="410" y="450" width="110" height="20" as="geometry" />
        </mxCell>
      </root>
    </mxGraphModel>
  </diagram>
</mxfile>
